<svg xmlns="http://www.w3.org/2000/svg" width="50" height="50" viewBox="0 0 50 50">
  <g id="组_5" data-name="组 5" transform="translate(-144 -145)">
    <path id="路径_105" data-name="路径 105" d="M194,150.952A5.955,5.955,0,0,0,188.048,145h-38.1A5.955,5.955,0,0,0,144,150.952v38.1A5.955,5.955,0,0,0,149.952,195h38.1A5.955,5.955,0,0,0,194,189.048Zm-2.381,38.1a3.571,3.571,0,0,1-3.571,3.571h-38.1a3.571,3.571,0,0,1-3.571-3.571v-38.1a3.571,3.571,0,0,1,3.571-3.571h38.1a3.571,3.571,0,0,1,3.571,3.571Z" fill="#fff"/>
    <path id="路径_106" data-name="路径 106" d="M264.041,307.684c-.577,0-1.041.673-1.041,1.509v6.924c0,.836.464,1.509,1.041,1.509s1.041-.673,1.041-1.509v-6.924C265.082,308.356,264.618,307.684,264.041,307.684Zm7.08-3.622c-.577,0-1.041.673-1.041,1.509v10.546c0,.836.464,1.509,1.041,1.509s1.041-.673,1.041-1.509V305.571C272.162,304.734,271.7,304.062,271.121,304.062Zm6.663-10.262c-.577,0-1.041.673-1.041,1.509v20.808c0,.836.464,1.509,1.041,1.509s1.041-.673,1.041-1.509V295.309C278.826,294.473,278.362,293.8,277.785,293.8Zm7.08.6c-.577,0-1.041.673-1.041,1.509v20.2c0,.836.464,1.509,1.041,1.509s1.041-.673,1.041-1.509v-20.2C285.906,295.076,285.442,294.4,284.865,294.4Zm6.663-4.829c-.577,0-1.041.673-1.041,1.509v25.033c0,.836.464,1.509,1.041,1.509s1.041-.673,1.041-1.509V291.084C292.569,290.247,292.105,289.575,291.528,289.575Zm-27.279,10.882a.775.775,0,0,0,.482-.172l6.872-5.234a1.237,1.237,0,0,0,.292-.328l6.4-10.3,6.211,3.277a.827.827,0,0,0,1.1-.362l6.872-10.227a2.02,2.02,0,0,0-.018-2.13.834.834,0,0,0-1.47.026l-6.4,9.52-6.241-3.285a.846.846,0,0,0-1.13.405l-6.747,10.865-6.705,5.1a1.882,1.882,0,0,0-.44,2.035A1.062,1.062,0,0,0,264.249,300.457Z" transform="translate(-108.738 -129.549)" fill="#fff"/>
  </g>
</svg>
