<svg xmlns="http://www.w3.org/2000/svg" width="53.095" height="50" viewBox="0 0 53.095 50">
  <g id="组_3" data-name="组 3" transform="translate(-178.6 -167.9)">
    <path id="路径_99" data-name="路径 99" d="M259.468,318.092l-1.288,1.4a3.582,3.582,0,0,0-1.768-.48,3.476,3.476,0,0,0-1.288.253l-5.06-7.459c-.008-.017-.034-.025-.042-.042a3.019,3.019,0,1,0-4.622-.53l-5.8,5.792a3.006,3.006,0,1,0,1.229,2.416,3.084,3.084,0,0,0-.219-1.12l6.011-6.011a2.936,2.936,0,0,0,1.3.3,2.808,2.808,0,0,0,.707-.093.8.8,0,0,0,.084.194l5.06,7.451a3.6,3.6,0,1,0,5.624.413l1.28-1.389Zm-21.654,2.736a1.381,1.381,0,1,1,1.381-1.381A1.382,1.382,0,0,1,237.814,320.828Zm10.111-9.842a1.381,1.381,0,1,1,1.381-1.381A1.382,1.382,0,0,1,247.925,310.986Zm23.009-8.486a3.906,3.906,0,0,0-3.9,3.9,3.8,3.8,0,0,0,.539,1.936l-4.656,5.043,1.81,1.667,4.673-5.068a3.9,3.9,0,1,0,1.532-7.476Zm0,5.338a1.44,1.44,0,1,1,1.44-1.44A1.444,1.444,0,0,1,270.935,307.838Z" transform="translate(-51.468 -124.764)" fill="#fff"/>
    <path id="路径_100" data-name="路径 100" d="M514.577,202.469l-5.666-8.217a15.218,15.218,0,1,0-4.066,2.728l5.708,8.268a2.383,2.383,0,0,0,3.292.606l.135-.093a2.388,2.388,0,0,0,.6-3.292Zm-16.064-7.089a12.254,12.254,0,1,1,12.25-12.258A12.251,12.251,0,0,1,498.513,195.38Z" transform="translate(-283.295)" fill="#fff"/>
    <path id="路径_101" data-name="路径 101" d="M223.895,247.433a1.6,1.6,0,0,1-1.659,1.526H183.542a1.6,1.6,0,0,1-1.659-1.526v-29.7a1.6,1.6,0,0,1,1.659-1.526h18.64a17.826,17.826,0,0,1,1.608-2.51H182.119a3.4,3.4,0,0,0-3.519,3.238v31.951a3.4,3.4,0,0,0,3.519,3.238H200.38v4.013h-9.943a1.878,1.878,0,0,0-1.945,1.79v.124a1.878,1.878,0,0,0,1.945,1.79h24.9a1.878,1.878,0,0,0,1.945-1.79v-.124a1.878,1.878,0,0,0-1.945-1.79H205.39v-4.013h18.261a3.4,3.4,0,0,0,3.519-3.238v-6.562a21.462,21.462,0,0,1-3.275.744Z" transform="translate(0 -41.944)" fill="#fff"/>
  </g>
</svg>
