<svg xmlns="http://www.w3.org/2000/svg" xmlns:xlink="http://www.w3.org/1999/xlink" width="46.01" height="50" viewBox="0 0 46.01 50">
  <defs>
    <clipPath id="clip-path">
      <rect width="46.01" height="50" fill="none"/>
    </clipPath>
  </defs>
  <g id="重复网格_1" data-name="重复网格 1" clip-path="url(#clip-path)">
    <g id="组_4" data-name="组 4" transform="translate(-166.066 -136)">
      <path id="路径_102" data-name="路径 102" d="M410.426,414.274h-3.848a.772.772,0,0,0-.771.771v3.848a.772.772,0,0,0,.771.771h3.848a.772.772,0,0,0,.771-.771v-3.848A.772.772,0,0,0,410.426,414.274Zm0,4.234a.382.382,0,0,1-.385.386h-3.084a.382.382,0,0,1-.385-.386v-3.084a.382.382,0,0,1,.385-.385h3.084a.382.382,0,0,1,.385.385Zm2.5-4.234h-.385a.2.2,0,0,0-.2.189v3.463a.191.191,0,0,0,.2.189h.385a.19.19,0,0,0,.189-.189v-3.463A.19.19,0,0,0,412.929,414.274Zm-.385-3.084h.385a.19.19,0,0,0,.189-.189v-5a.19.19,0,0,0-.189-.189h-.385a.2.2,0,0,0-.2.189v5A.2.2,0,0,0,412.543,411.19Zm-5.972,0h3.848a.772.772,0,0,0,.771-.771v-3.848a.772.772,0,0,0-.771-.771h-3.848a.772.772,0,0,0-.771.771v3.848A.772.772,0,0,0,406.571,411.19Zm0-4.234a.382.382,0,0,1,.385-.385h3.084a.382.382,0,0,1,.385.385v3.077a.382.382,0,0,1-.385.386h-3.084a.382.382,0,0,1-.385-.386Zm8.671,8.474h-.385a.19.19,0,0,0-.19.189v3.848a.19.19,0,0,0,.19.189h.385a.19.19,0,0,0,.189-.189V415.62A.19.19,0,0,0,415.242,415.431Zm4.234-3.084H406a.191.191,0,0,0-.189.2v.385a.19.19,0,0,0,.189.19h13.479a.2.2,0,0,0,.2-.19v-.385a.2.2,0,0,0-.2-.2Zm-.582-6.547h-3.848a.772.772,0,0,0-.771.771v3.848a.772.772,0,0,0,.771.771h3.848a.772.772,0,0,0,.771-.771v-3.848A.768.768,0,0,0,418.894,405.8Zm0,4.234a.382.382,0,0,1-.385.386h-3.084a.386.386,0,0,1-.385-.386v-3.077a.382.382,0,0,1,.385-.385h3.084a.386.386,0,0,1,.385.385Zm-1.731,5.4h-.385a.2.2,0,0,0-.2.2v3.842a.19.19,0,0,0,.189.189h.385a.2.2,0,0,0,.2-.189V415.62A.182.182,0,0,0,417.163,415.431Zm1.927-1.156H418.7a.2.2,0,0,0-.2.189v5a.191.191,0,0,0,.2.189h.385a.19.19,0,0,0,.19-.189v-5A.19.19,0,0,0,419.09,414.274Zm0,0" transform="translate(-223.672 -251.739)" fill="#fff"/>
      <path id="路径_103" data-name="路径 103" d="M211.573,156.718a4.128,4.128,0,0,0-4.3-2.174l2.068-1.729a4.487,4.487,0,0,0,.864-6.051,4.068,4.068,0,0,0-2.68-1.749,4.525,4.525,0,0,0-.592-.047,4.505,4.505,0,0,0,.5-5.844,4.039,4.039,0,0,0-5.8-.878l-.559.465A4.856,4.856,0,0,0,196.793,136H181.035a4.79,4.79,0,0,0-4.648,4.8V147.8c-.758-2.141-1.775-3.969-3.152-4.86a3.8,3.8,0,0,0-3.564-.332c-2.407.924-2.121,4.694-1.722,9.907.352,4.674.8,10.492-.864,14.634a14.161,14.161,0,0,0,.771,12.188c1.5,2.566,4.654,5.811,11.11,6.642a2.866,2.866,0,0,0,.426.027c3.617,0,12.56-4.668,14.887-5.911h2.52a4.818,4.818,0,0,0,4.754-4.415,68.012,68.012,0,0,0,6.4-4.428c1.5-1.13,3.165-2.733,2.646-5.1a3.979,3.979,0,0,0-1.789-2.547c-.053-.033-.113-.066-.166-.1l1.423-.944a4.548,4.548,0,0,0,1.509-5.838Zm-12.094,15.931h-21V143.44h20.991v29.209Zm8.983-24.714a2.462,2.462,0,0,1-.412,3.218l-6.469,5.419v-5.984l4.109-3.165a1.931,1.931,0,0,1,1.469-.346,1.984,1.984,0,0,1,1.3.858Zm-5.532-8.052a1.928,1.928,0,0,1,1.463-.379,2.029,2.029,0,0,1,1.323.824,2.45,2.45,0,0,1-.339,3.218l-3.8,3.271v-5.811Zm-21.9-1.782h15.758a2.8,2.8,0,0,1,2.686,2.706v1.5H178.482v-1.5A2.666,2.666,0,0,1,181.028,138.1Zm-1.8,45.791c-4.441-.572-7.753-2.52-9.568-5.625a11.989,11.989,0,0,1-.632-10.339c1.848-4.6,1.383-10.685,1.011-15.572-.239-3.132-.565-7.42.379-7.786a1.686,1.686,0,0,1,1.669.133c2.64,1.709,4.036,10.126,4.3,15.04v15.618a4.7,4.7,0,0,0,4.648,4.727h8.637C185.536,182.11,180.809,184.118,179.226,183.892Zm17.566-5.9H181.035a2.59,2.59,0,0,1-2.547-2.626v-1.569h20.991v1.569A2.729,2.729,0,0,1,196.793,177.988Zm9.86-8.4c-.027.02-2.294,1.815-5.08,3.6v-5l4.628-3.072a2.053,2.053,0,0,1,1.476.266,1.934,1.934,0,0,1,.858,1.223C208.741,167.549,208.209,168.414,206.653,169.584Zm2.181-8.743-3.577,2.374-3.684,2.447v-5.166l5.459-3.723a1.976,1.976,0,0,1,2.68.931,2.39,2.39,0,0,1-.878,3.138Zm0,0" transform="translate(0 0)" fill="#fff"/>
      <path id="路径_104" data-name="路径 104" d="M495.307,721.076a1.033,1.033,0,0,0,0,1.47,1.051,1.051,0,0,0,.725.307,1.125,1.125,0,0,0,.745-.307,1.04,1.04,0,0,0-1.47-1.47Zm0,0" transform="translate(-307.045 -545.876)" fill="#fff"/>
    </g>
  </g>
</svg>
