<svg id="组_1" data-name="组 1" xmlns="http://www.w3.org/2000/svg" width="50" height="50" viewBox="0 0 50 50">
  <path id="路径_93" data-name="路径 93" d="M194,141.952A5.955,5.955,0,0,0,188.048,136h-38.1A5.955,5.955,0,0,0,144,141.952v38.1A5.955,5.955,0,0,0,149.952,186h38.1A5.955,5.955,0,0,0,194,180.048Zm-2.381,38.1a3.571,3.571,0,0,1-3.571,3.571h-38.1a3.571,3.571,0,0,1-3.571-3.571v-38.1a3.571,3.571,0,0,1,3.571-3.571h38.1a3.571,3.571,0,0,1,3.571,3.571Z" transform="translate(-144 -136)" fill="#fff"/>
  <path id="路径_94" data-name="路径 94" d="M163.2,333.7h46.548v2.25H163.2Z" transform="translate(-161.966 -320.214)" fill="#fff"/>
  <path id="路径_95" data-name="路径 95" d="M270.425,236.325m-1.125,0a1.125,1.125,0,1,0,1.125-1.125A1.125,1.125,0,0,0,269.3,236.325Z" transform="translate(-260.753 -228.823)" fill="#fff"/>
  <path id="路径_96" data-name="路径 96" d="M349.525,236.325m-1.125,0a1.125,1.125,0,1,0,1.125-1.125A1.125,1.125,0,0,0,348.4,236.325Z" transform="translate(-334.457 -228.823)" fill="#fff"/>
  <path id="路径_97" data-name="路径 97" d="M428.525,236.325m-1.125,0a1.125,1.125,0,1,0,1.125-1.125A1.125,1.125,0,0,0,427.4,236.325Z" transform="translate(-408.068 -228.823)" fill="#fff"/>
  <path id="路径_98" data-name="路径 98" d="M295.123,460v1.742l-7.54,2.957,7.54,2.957v1.742L285.1,465.4v-1.434Zm8.518-5.5h1.829l-6.928,16.689H296.7Zm3.39,5.5,10.023,3.973V465.4l-10.023,3.992v-1.742l7.54-2.957-7.54-2.957Z" transform="translate(-276.029 -432.183)" fill="#fff"/>
</svg>
